<?xml version="1.0" encoding="utf-8"?>
<!-- Generator: Adobe Illustrator 17.1.0, SVG Export Plug-In . SVG Version: 6.00 Build 0)  -->
<!DOCTYPE svg PUBLIC "-//W3C//DTD SVG 1.1//EN" "http://www.w3.org/Graphics/SVG/1.1/DTD/svg11.dtd">
<svg version="1.1" id="Layer_1" xmlns="http://www.w3.org/2000/svg" xmlns:xlink="http://www.w3.org/1999/xlink" x="0px" y="0px"
	 viewBox="0 0 90.8 50" enable-background="new 0 0 90.8 50" xml:space="preserve">
<g>
	<g>
		<path fill-rule="evenodd" clip-rule="evenodd" fill="#3190E7" d="M6.6,47.2c15.8-10.2,33.7-2.9,42.7,2
			C36.9,44.4,18.8,43.3,6.6,47.2z"/>
		<path fill-rule="evenodd" clip-rule="evenodd" fill="#3190E7" d="M34.4,0.7c7.6,0,14.1,4.5,17.1,10.9h-5.9
			c-2.6-3.2-6.7-5.3-11.2-5.3c-4.5,0-8.4,2-11.1,5.2c0.1-0.1,0.3-0.2,0.4-0.3c6.2-4.4,14.5,0.5,14.5,0.5S30.3,9.3,25,13
			c-5.3,3.7-4.5,11.2-4.5,11.2s0-0.1-0.1-0.3c0,0.1,0,0.2,0.1,0.3c-1.3-0.9-2.8-1.6-4.5-1.7c-0.2-1.1-0.3-2.2-0.3-3.3
			C15.7,9,24,0.7,34.4,0.7L34.4,0.7z M10.5,42.9v-1.6c4.9-3.6,14-8.4,25-5c16.6,5.2,27.2,12.3,40,9.1c12.8-3.2,14-10.2,14-10.2
			s-2.3,9.9-14.9,12.1c-12.7,2.2-24.3-0.3-39.1-5.8C25.4,37.8,15.7,40.7,10.5,42.9L10.5,42.9z M10.5,39.7c0.9-0.6,1.9-1.2,2.7-1.7
			c-0.4-0.3-0.8-0.6-1.2-0.9c-0.7-0.6-1.2-1.4-1.6-2.1v3.4c0,0,0.1,0.1,0.1,0.1c0.2,0.2,0.3,0.3,0.5,0.4c-0.2-0.1-0.4-0.2-0.6-0.3
			V39.7L10.5,39.7z M10.5,23.7v-5.9c1.2-0.4,2.5-0.7,3.8-0.7c-0.1,0.7-0.1,1.4-0.1,2c0,1.2,0.1,2.3,0.3,3.4
			C13,22.6,11.6,23,10.5,23.7z M10.5,17.9v5.9c-2.6,1.5-4.4,4.3-4.4,7.5c0,3.2,1.8,6,4.4,7.5v1c-1.1,0.7-2.1,1.5-2.9,2.1
			c-3.8-2.4-6.2-6.6-6.2-11.3C1.3,24.7,5.1,19.7,10.5,17.9L10.5,17.9z M10.5,35c-1.7-3.2-1.1-6.9-1.1-6.9s-2.8,6.5,1.1,10.3V35
			L10.5,35z M10.5,41.3c-2.6,1.9-4,3.5-4,3.5c0,0.1,1.5-0.8,4-1.9V41.3z"/>
		<path fill-rule="evenodd" clip-rule="evenodd" fill="#3190E7" d="M52.3,38.8c0,0,7.9,4.1,15.4,3.4c7.5-0.7,9.7-3.3,9.7-3.3
			s-2.7,5.1-9.9,5.3C60.3,44.5,52.3,39,52.3,38.8z"/>
		<rect x="46.2" y="13.2" fill-rule="evenodd" clip-rule="evenodd" fill="#3190E7" width="6.7" height="6.7"/>
		<rect x="72.7" y="31.6" fill-rule="evenodd" clip-rule="evenodd" fill="#3190E7" width="5.2" height="5.2"/>
		<rect x="54.2" y="7" fill-rule="evenodd" clip-rule="evenodd" fill="#3190E7" width="8.9" height="8.9"/>
		<rect x="80" y="22.4" fill-rule="evenodd" clip-rule="evenodd" fill="#3190E7" width="8.9" height="8.9"/>
		<rect x="64" y="16.6" fill-rule="evenodd" clip-rule="evenodd" fill="#3190E7" width="5" height="5"/>
		<rect x="67.3" y="26.4" fill-rule="evenodd" clip-rule="evenodd" fill="#3190E7" width="5" height="5"/>
		<rect x="56.8" y="26.9" fill-rule="evenodd" clip-rule="evenodd" fill="#3190E7" width="5" height="5"/>
		<rect x="74.2" y="16.8" fill-rule="evenodd" clip-rule="evenodd" fill="#3190E7" width="5" height="5"/>
	</g>
</g>
</svg>
